# xmcd
#
# Track frame offsets: 
#        150
#        13235
#        26633
#
# Disc length: 635 seconds
#
# Revision: 2
# Processed by: cddbd v1.5.2PL0 Copyright (c) Steve Scherf et al.
# Submitted via: ExactAudioCopy v0.99pb4
#
DISCID=1d027903
DTITLE=Arctic Monkeys - I Bet You Look Good on the Dancefloor
DYEAR=2005
DGENRE=Indie
TTITLE0=I Bet You Look Good on the Dancefloor
TTITLE1=Bigger Boys and Stolen Sweethearts
TTITLE2=Chun Li's Spinning Bird Kick
EXTD=YEAR: 2005
EXTT0=
EXTT1=
EXTT2=
PLAYORDER=
